<?xml version="1.0" encoding="UTF-8" standalone="no"?>
<svg
   id="svg"
   version="1.1"
   width="400"
   height="400"
   viewBox="0, 0, 400,400"
   sodipodi:docname="logo.svg"
   inkscape:version="1.3.2 (091e20e, 2023-11-25)"
   inkscape:export-filename="logo.png"
   inkscape:export-xdpi="48"
   inkscape:export-ydpi="48"
   xmlns:inkscape="http://www.inkscape.org/namespaces/inkscape"
   xmlns:sodipodi="http://sodipodi.sourceforge.net/DTD/sodipodi-0.dtd"
   xmlns="http://www.w3.org/2000/svg"
   xmlns:svg="http://www.w3.org/2000/svg">
  <defs
     id="defs1">
    <filter
       style="color-interpolation-filters:sRGB;"
       inkscape:label="Cross-smooth"
       id="filter3"
       x="-0.066002317"
       y="-0.065999999"
       width="1.1320046"
       height="1.132">
      <feGaussianBlur
         in="SourceGraphic"
         stdDeviation="10"
         result="blur1"
         id="feGaussianBlur1" />
      <feComposite
         in="blur1"
         in2="blur1"
         operator="in"
         result="composite1"
         id="feComposite1" />
      <feComposite
         in="composite1"
         in2="composite1"
         k2="1"
         operator="arithmetic"
         result="composite2"
         id="feComposite2" />
      <feColorMatrix
         in="composite2"
         values="1 0 0 0 0 0 1 0 0 0 0 0 1 0 0 0 0 0 10 0 "
         result="colormatrix1"
         id="feColorMatrix2" />
      <feGaussianBlur
         stdDeviation="1"
         result="blur2"
         id="feGaussianBlur2" />
      <feColorMatrix
         in="blur2"
         values="1 0 0 0 0 0 1 0 0 0 0 0 1 0 0 0 0 0 5 -1 "
         result="colormatrix2"
         id="feColorMatrix3" />
      <feBlend
         in="SourceGraphic"
         in2="colormatrix2"
         stdDeviation="17"
         mode="normal"
         result="blend"
         id="feBlend3" />
      <feComposite
         in="blend"
         in2="colormatrix2"
         operator="in"
         result="composite3"
         id="feComposite3" />
    </filter>
  </defs>
  <sodipodi:namedview
     id="namedview1"
     pagecolor="#ffffff"
     bordercolor="#000000"
     borderopacity="0.25"
     inkscape:showpageshadow="2"
     inkscape:pageopacity="0.0"
     inkscape:pagecheckerboard="0"
     inkscape:deskcolor="#d1d1d1"
     inkscape:zoom="1.9306244"
     inkscape:cx="235.41607"
     inkscape:cy="203.82007"
     inkscape:window-width="1680"
     inkscape:window-height="1050"
     inkscape:window-x="0"
     inkscape:window-y="0"
     inkscape:window-maximized="0"
     inkscape:current-layer="svg"
     inkscape:export-bgcolor="#fffffff0" />
  <g
     id="svgg"
     transform="translate(-8.7335728,-1.87115)">
    <path
       id="path0"
       d="m -16.544331,19.549825 c -0.137,1.034 -0.239,91.034005 -0.227,200.000005 l 0.022,198.12 h 199.982001 199.981 v -200 -200.000005 h -199.754 -199.755001 l -0.249,1.88 m 225.613001,74.945 c 0.446,0.346 6.498,1.45 8.129,1.483 0.323,0.007 0.762,0.114 0.977,0.238 0.215,0.124 1.258,0.253 2.317,0.288 1.06,0.034 2.027,0.196 2.149,0.36 0.122,0.164 0.485,0.326 0.807,0.36 0.573,0.061 5.868,1.569 7.032,2.002 0.322,0.12 1.103,0.277 1.735,0.348 0.633,0.072 1.248,0.261 1.367,0.422 0.12,0.160005 0.743,0.348005 1.385,0.418005 0.642,0.07 1.265,0.285 1.384,0.479 0.119,0.193 0.561,0.408 0.982,0.478 0.42,0.069 1.136,0.331 1.591,0.582 0.456,0.25 0.939,0.344 1.075,0.208 0.135,-0.135 0.246,-0.041 0.246,0.21 0,0.25 0.132,0.42 0.293,0.376 0.489,-0.132 3.223,0.995 3.223,1.33 0,0.171 0.22,0.314 0.488,0.316 0.676,0.006 8.379,3.944 11.025,5.636 1.195,0.765 2.346,1.391 2.557,1.391 0.211,0 0.383,0.176 0.383,0.391 0,0.214 0.264,0.39 0.586,0.39 0.322,0 0.586,0.176 0.586,0.391 0,0.215 0.264,0.391 0.586,0.391 0.322,0 0.586,0.175 0.586,0.39 0,0.215 0.263,0.391 0.586,0.391 0.322,0 0.586,0.176 0.586,0.39 0,0.215 0.263,0.391 0.586,0.391 0.322,0 0.586,0.176 0.586,0.391 0,0.214 0.175,0.39 0.39,0.39 0.215,0 0.713,0.308 1.108,0.684 0.394,0.376 1.11,0.947 1.591,1.269 1.676,1.123 2.473,1.764 3.275,2.637 0.444,0.483 1.031,0.879 1.304,0.879 0.273,0 0.675,0.308 0.894,0.684 0.219,0.376 0.404,0.507 0.41,0.293 0.015,-0.449 0.802,0.268 5.676,5.166 4.054,4.074 6.79,7.033 6.879,7.44 0.034,0.157 0.393,0.516 0.797,0.799 0.405,0.283 0.646,0.661 0.536,0.838 -0.11,0.178 0.074,0.428 0.409,0.557 0.334,0.128 0.498,0.411 0.363,0.629 -0.134,0.218 0.014,0.496 0.33,0.617 0.317,0.121 0.791,0.742 1.055,1.379 0.264,0.638 0.823,1.342 1.241,1.566 0.419,0.224 0.664,0.506 0.544,0.625 -0.258,0.259 1.258,2.514 1.995,2.966 0.284,0.175 0.43,0.455 0.326,0.625 -0.105,0.169 0.199,0.725 0.675,1.236 0.476,0.511 0.866,1.059 0.866,1.218 0,0.16 0.307,0.649 0.683,1.088 0.376,0.439 0.684,0.972 0.684,1.185 0,0.212 0.156,0.386 0.348,0.386 0.192,0 0.459,0.439 0.593,0.976 0.135,0.538 0.428,0.977 0.652,0.977 0.223,0 0.297,0.176 0.165,0.391 -0.133,0.214 -0.045,0.39 0.195,0.39 0.24,0 0.335,0.165 0.21,0.367 -0.125,0.202 0.015,0.509 0.311,0.683 0.568,0.336 1.611,2.075 1.244,2.075 -0.312,0 1.734,3.945 2.382,4.594 0.301,0.301 0.448,0.709 0.326,0.906 -0.122,0.198 -0.036,0.36 0.191,0.36 0.228,0 0.372,0.131 0.321,0.293 -0.051,0.161 0.117,0.82 0.373,1.464 0.256,0.645 1.359,3.545 2.452,6.446 1.093,2.9 2.132,5.625 2.31,6.054 0.177,0.43 0.633,2.012 1.013,3.516 0.38,1.504 1.03,3.965 1.444,5.469 0.415,1.504 0.83,3.349 0.924,4.101 0.093,0.752 0.289,1.807 0.434,2.344 0.146,0.537 0.293,1.328 0.328,1.758 0.034,0.43 0.291,3.029 0.571,5.776 0.355,3.49 0.418,6.963 0.209,11.524 -0.165,3.59 -0.286,7.143 -0.27,7.895 0.087,4.008 -1.356,13.377 -2.588,16.797 -0.499,1.386 -1.131,4.923 -0.96,5.371 0.103,0.269 -0.008,0.489 -0.246,0.489 -0.238,0 -0.403,0.131 -0.367,0.292 0.132,0.585 -0.548,3.212 -0.792,3.062 -0.137,-0.085 -0.281,0.312 -0.319,0.882 -0.133,2.017 -0.85,5.576 -1.216,6.038 -0.204,0.257 -0.486,1.109 -0.627,1.893 -0.141,0.784 -0.528,1.969 -0.859,2.632 -0.331,0.663 -0.654,1.604 -0.719,2.09 -0.065,0.486 -0.215,1.148 -0.335,1.47 -0.119,0.322 -0.415,1.229 -0.656,2.016 -0.242,0.787 -0.695,1.528 -1.006,1.648 -0.312,0.12 -0.567,0.663 -0.567,1.206 0,0.544 -0.138,0.989 -0.306,0.989 -0.257,0 -1.401,3.156 -1.44,3.972 -0.007,0.143 -0.144,0.392 -0.305,0.553 -0.465,0.464 -0.341,1.641 0.195,1.857 0.288,0.116 0.204,0.21 -0.205,0.228 -0.594,0.026 -1.342,1.22 -1.61,2.57 -0.135,0.677 -1.116,2.331 -1.564,2.637 -0.301,0.205 -0.274,0.393 0.092,0.629 0.398,0.257 0.328,0.387 -0.293,0.549 -0.507,0.133 -0.814,0.531 -0.814,1.054 0,0.538 -0.164,0.74 -0.453,0.562 -0.304,-0.189 -0.385,-0.025 -0.248,0.501 0.133,0.509 -0.061,0.948 -0.557,1.257 -0.418,0.262 -0.667,0.72 -0.553,1.018 0.141,0.368 0.012,0.467 -0.403,0.308 -0.476,-0.183 -0.554,-0.054 -0.351,0.584 0.195,0.616 0.008,0.983 -0.756,1.484 -0.663,0.435 -0.975,0.95 -0.897,1.486 0.078,0.546 -0.233,1.043 -0.929,1.482 -0.646,0.408 -1.095,1.081 -1.173,1.758 -0.075,0.655 -0.362,1.1 -0.712,1.104 -0.353,0.004 -0.573,0.353 -0.555,0.879 0.021,0.586 -0.196,0.872 -0.66,0.872 -0.856,0 -1.309,0.644 -0.643,0.912 0.281,0.114 0.181,0.211 -0.234,0.229 -0.493,0.021 -0.65,0.227 -0.491,0.642 0.184,0.479 0.044,0.56 -0.642,0.372 -0.777,-0.212 -0.797,-0.189 -0.171,0.202 0.933,0.583 0.201,1.528 -1.241,1.602 -0.935,0.049 -0.947,0.069 -0.138,0.224 0.885,0.17 0.883,0.179 -0.343,1.727 -0.678,0.856 -1.431,1.481 -1.673,1.388 -0.242,-0.093 -0.665,0.073 -0.941,0.368 -0.276,0.295 -0.407,0.537 -0.291,0.537 0.116,0 -0.141,0.352 -0.57,0.781 -0.43,0.43 -0.782,0.931 -0.782,1.113 0,0.182 -0.744,0.666 -1.654,1.074 -1.926,0.866 -4.205,2.944 -4.205,3.835 0,0.43 -0.388,0.631 -1.27,0.658 -1.177,0.036 -1.198,0.059 -0.293,0.317 l 0.977,0.278 -1.108,0.285 c -0.609,0.157 -1.552,0.729 -2.095,1.272 -0.543,0.543 -1.363,1.15 -1.822,1.35 -1.309,0.57 -2.189,1.215 -4.09,3.002 -0.972,0.913 -1.994,1.66 -2.271,1.66 -0.303,0 -0.407,0.251 -0.261,0.632 0.203,0.529 0.113,0.562 -0.553,0.205 -0.661,-0.353 -0.787,-0.311 -0.743,0.248 0.033,0.421 -0.276,0.719 -0.827,0.798 -0.483,0.068 -0.878,0.288 -0.878,0.488 0,0.2 -0.352,0.364 -0.782,0.364 -0.429,0 -0.781,0.159 -0.781,0.354 0,0.195 -0.879,0.58 -1.953,0.855 -1.074,0.275 -1.953,0.643 -1.953,0.817 0,0.175 -0.528,0.317 -1.172,0.317 -0.765,0 -1.172,0.198 -1.172,0.568 0,0.872 -3.402,2.223 -4.892,1.944 -1.043,-0.196 -1.285,-0.1 -1.462,0.58 -0.157,0.6 -0.526,0.814 -1.399,0.815 -0.652,0 -1.294,0.175 -1.427,0.39 -0.132,0.215 -0.582,0.391 -0.999,0.391 -0.417,0 -0.758,0.248 -0.758,0.551 0,0.339 -0.602,0.654 -1.561,0.816 -0.858,0.145 -1.648,0.404 -1.754,0.577 -0.324,0.523 -5.699,1.699 -6.069,1.328 -0.449,-0.45 -4.746,-0.181 -4.461,0.28 0.12,0.195 0.077,0.369 -0.097,0.387 -0.174,0.017 -0.712,0.076 -1.195,0.13 -0.484,0.053 -0.879,-0.049 -0.879,-0.228 0,-0.179 -0.264,-0.326 -0.586,-0.326 -0.322,0 -0.586,0.154 -0.586,0.341 0,0.187 -0.879,0.457 -1.953,0.599 -1.074,0.143 -1.953,0.429 -1.953,0.636 0,0.208 -0.539,0.377 -1.198,0.377 -0.658,0 -1.549,0.188 -1.978,0.418 -0.47,0.252 -0.965,0.279 -1.244,0.068 -0.255,-0.193 -1.681,-0.377 -3.17,-0.41 -1.703,-0.038 -2.823,-0.244 -3.021,-0.556 -0.173,-0.273 -0.317,-0.32 -0.321,-0.105 -0.003,0.227 -0.843,0.332 -2.008,0.252 -1.38,-0.096 -2.111,0.025 -2.351,0.39 -0.29,0.44 -0.431,0.43 -0.83,-0.056 -0.509,-0.621 -1.798,-0.725 -9.42,-0.756 -2.484,-0.01 -4.467,-0.196 -4.768,-0.446 -0.284,-0.236 -0.7,-0.315 -0.924,-0.176 -0.224,0.138 -0.408,0.1 -0.408,-0.086 0,-0.185 -0.745,-0.381 -1.656,-0.435 -0.952,-0.056 -1.791,-0.338 -1.973,-0.662 -0.227,-0.405 -1.058,-0.564 -2.944,-0.564 -1.997,-10e-4 -2.783,-0.165 -3.274,-0.684 -1.219,-1.293 -1.705,-1.532 -3.642,-1.794 -1.067,-0.145 -4.126,-0.595 -6.798,-1.001 -2.671,-0.406 -5.044,-0.677 -5.273,-0.603 -0.229,0.075 -1.164,0.328 -2.077,0.562 -1.043,0.267 -1.66,0.646 -1.66,1.022 0,0.397 -0.235,0.522 -0.704,0.374 -0.387,-0.123 -1.046,0.035 -1.465,0.351 -0.752,0.569 -0.751,0.576 0.021,0.613 0.696,0.033 0.68,0.077 -0.142,0.407 -0.705,0.282 -0.872,0.577 -0.703,1.245 0.213,0.845 0.201,0.849 -0.346,0.116 -0.494,-0.66 -0.567,-0.673 -0.567,-0.097 0,0.363 -0.267,0.66 -0.594,0.66 -0.327,0 -0.795,0.44 -1.04,0.977 -0.345,0.758 -0.737,0.977 -1.749,0.977 -1.144,0 -1.304,0.124 -1.304,1.013 0,0.684 -0.254,1.079 -0.782,1.217 -0.429,0.112 -0.781,0.341 -0.781,0.507 0,0.167 -0.449,0.416 -0.999,0.553 -0.788,0.198 -0.945,0.419 -0.746,1.047 0.189,0.596 0.05,0.849 -0.559,1.008 -0.447,0.117 -0.721,0.359 -0.61,0.539 0.111,0.179 -0.199,0.537 -0.688,0.795 -0.49,0.258 -0.978,0.598 -1.085,0.755 -0.108,0.157 -0.985,0.728 -1.95,1.268 -1.053,0.59 -1.847,1.349 -1.987,1.902 -0.129,0.505 -0.428,0.878 -0.665,0.829 -0.495,-0.104 -2.608,1.903 -2.954,2.805 -0.128,0.333 -0.568,0.605 -0.978,0.605 -0.41,0 -0.963,0.262 -1.229,0.582 -0.265,0.32 -0.638,0.485 -0.829,0.367 -0.19,-0.117 -0.346,-0.061 -0.346,0.125 0,0.478 -3.419,2.832 -4.113,2.832 -0.316,10e-4 -0.574,0.176 -0.574,0.391 0,0.215 0.202,0.391 0.449,0.391 0.967,0 -3.095,2.343 -4.844,2.794 -1.021,0.263 -1.855,0.606 -1.855,0.763 0,1.007 -5.728,2.022 -9.462,1.678 -2.512,-0.232 -3.876,-0.219 -3.984,0.038 -0.091,0.215 -0.179,0.111 -0.196,-0.23 -0.016,-0.342 -0.475,-0.823 -1.018,-1.071 -0.543,-0.247 -1.089,-0.715 -1.214,-1.039 -0.124,-0.324 -0.646,-0.589 -1.16,-0.589 -0.515,0 -0.935,-0.206 -0.935,-0.456 0,-0.251 -0.11,-0.346 -0.244,-0.212 -0.134,0.134 -0.681,-0.408 -1.216001,-1.205 -1.966,-2.926 -3.73,-4.815 -5.107,-5.467 -1.07,-0.506 -1.475,-0.98 -1.673,-1.954 -0.144,-0.707 -0.532,-1.586 -0.862,-1.953 -2.578,-2.871 -5.101,-11.196 -3.85,-12.704 0.24,-0.289 0.492,-0.863 0.561,-1.275 0.068,-0.413 0.329,-1.123 0.58,-1.579 0.25,-0.455 0.344,-0.938 0.208,-1.074 -0.135,-0.135 -0.041,-0.246 0.21,-0.246 0.25,0 0.455,-0.317 0.455,-0.704 0,-0.386 0.158,-0.87 0.35,-1.074 0.551,-0.586 2.364,-5.925 2.101,-6.189 -0.131,-0.13 -0.032,-0.237 0.219,-0.237 0.25,0 0.455,-0.439 0.455,-0.976 0,-0.537 0.176,-0.977 0.391,-0.977 0.215,0 0.353,-0.132 0.308,-0.293 -0.046,-0.161 0.129,-0.675 0.388,-1.142 0.259,-0.467 0.534,-1.17 0.61,-1.563 0.187,-0.957 0.613,-2.108 1.132,-3.056 0.235,-0.43 0.981,-2.364 1.657,-4.297 0.677,-1.934 1.421,-3.867 1.654,-4.297 0.233,-0.43 0.443,-0.912 0.468,-1.072 0.024,-0.16 0.298001,-0.863 0.608001,-1.562 1.181,-2.658 4.633,-11.82 4.633,-12.297 0,-0.274 0.141,-0.499 0.313,-0.499 0.173,0 0.213,-0.264 0.089,-0.586 -0.124,-0.322 -0.047,-0.586 0.171,-0.586 0.218,0 0.297,-0.379 0.175,-0.842 -0.124,-0.476 -0.061,-0.744 0.146,-0.617 0.213,0.132 0.337,-0.692 0.299,-1.975 -0.037,-1.211 -0.261,-2.267 -0.5,-2.346 -0.238,-0.079 -0.432,-0.393 -0.432,-0.698 0,-0.304 -7.775389,-3.618 -0.391,-0.553 8.98834,3.73074 9.05936,-1.73909 9.05936,-2.02809 0,-0.289 -1.93116,-2.53908 -2.46816,-3.16308 -0.537,-0.625 -8.9342,1.65117 -8.9342,1.38217 -0.001,-0.268 6.57873,-3.9952 6.41373,-3.9952 -0.165,0 -7.61373,2.4082 -8.34473,1.0662 -0.731,-1.343 -1.658001,-2.881 -2.059001,-3.418 -2.153,-2.885 -8.12,-13.885 -8.12,-14.97 0,-0.135 -0.534,-1.412 -1.187,-2.837 -2.505,-5.47 -5.533,-16.775 -5.605,-20.924 -0.024,-1.429 -0.151,-2.533 -0.282,-2.453 -0.35,0.215 -0.748,-4.738 -0.497,-6.196 0.169,-0.988 0.121,-1.129 -0.227,-0.667 -0.341,0.453 -0.417,0.054 -0.334,-1.758 0.059,-1.289 -0.04,-2.577 -0.22,-2.863 -0.179,-0.286 -0.205,-1.648 -0.058,-3.027 0.182,-1.701 0.133,-2.508 -0.153,-2.508 -0.278,0 -0.421,-1.599 -0.421,-4.711 0,-3.19 0.132,-4.629 0.41,-4.457 0.28,0.173 0.332,-0.713 0.165,-2.809 -0.178,-2.225 -0.131,-2.902 0.173,-2.476 0.308,0.431 0.351,0.081 0.164,-1.331 -0.198,-1.492 -0.145,-1.849 0.24,-1.611 0.376,0.232 0.43,0.017 0.228,-0.906 -0.147,-0.667 -0.139,-1.418 0.017,-1.67 0.156,-0.252 0.348,-1.179 0.427,-2.06 0.079,-0.881 0.315,-1.661 0.526,-1.732 0.21,-0.072 0.276,-0.555 0.146,-1.074 -0.141,-0.561 -0.067,-0.945 0.183,-0.945 0.232,0 0.327,-0.246 0.211,-0.546 -0.115,-0.301 -0.038,-0.652 0.171,-0.782 0.21,-0.129 0.289,-0.586 0.177,-1.016 -0.113,-0.429 -0.025,-0.781 0.195,-0.781 0.22,0 0.308,-0.351 0.195,-0.781 -0.122,-0.467 -0.012,-0.781 0.274,-0.781 0.286,0 0.377,-0.262 0.228,-0.652 -0.138,-0.359 -0.058,-0.772 0.178,-0.918 0.235,-0.145 0.444,-0.818 0.463,-1.496 0.019,-0.677 0.194,-1.231 0.389,-1.231 0.195,0 0.253,-0.164 0.13,-0.364 -0.124,-0.2 -0.054,-0.469 0.155,-0.598 0.209,-0.129 0.281,-0.493 0.16,-0.808 -0.121,-0.316 -0.063,-0.574 0.129,-0.574 0.192,0 0.378,-0.379 0.413,-0.844 0.035,-0.464 0.257,-0.963 0.493,-1.109 0.236,-0.146 0.458,-0.645 0.493,-1.109 0.035,-0.464 0.18,-0.844 0.323,-0.844 0.142,0 0.258,-0.43 0.258,-0.956 0,-0.525 0.288,-1.243 0.639,-1.594 0.351,-0.351 0.538,-0.8 0.416,-0.997 -0.122,-0.198 -0.073,-0.359 0.109,-0.359 0.181,0 0.36,-0.393 0.396,-0.873 0.036,-0.481 0.25,-0.935 0.476,-1.01 0.226,-0.076 0.311,-0.298 0.19,-0.494 -0.122,-0.197 -0.04,-0.358 0.18,-0.358 0.221,0 0.301,-0.263 0.177,-0.586 -0.124,-0.322 -0.03,-0.585 0.208,-0.585 0.237,0 0.432,-0.352 0.432,-0.782 0,-0.429 0.186,-0.781 0.414,-0.781 0.227,0 0.305,-0.176 0.172,-0.391 -0.133,-0.214 -0.045,-0.39 0.195,-0.39 0.24,0 0.341,-0.156 0.223,-0.347 -0.118,-0.19 0.02,-0.541 0.307,-0.779 0.287,-0.238 0.854,-1.18 1.26,-2.095 0.407,-0.914 1.049,-2.003 1.428,-2.419 0.634,-0.697 0.833,-1.185 0.749,-1.838 -0.018,-0.138 0.392,-0.709 0.911,-1.269 0.52,-0.561 0.821,-1.023 0.67,-1.028 -0.151,-0.004 0.165,-0.371 0.702,-0.815 0.537001,-0.443 0.759001,-0.694 0.493001,-0.556 -0.267001,0.137 0.169,-0.8 0.968,-2.083 0.799,-1.282 1.616,-2.231 1.814,-2.108 0.199,0.123 0.24,0.027 0.092,-0.214 -0.151,-0.244 0.452,-1.159 1.367,-2.073 0.9,-0.901 1.39,-1.507 1.088,-1.347 -0.301,0.16 0.108,-0.341 0.911,-1.112 0.802,-0.771 1.359,-1.402 1.237,-1.402 -0.121,0 0.453,-0.673 1.276,-1.496 0.823,-0.823 3.858,-3.936 6.745,-6.917 2.887,-2.981 5.108,-5.193 4.937,-4.915 -0.172,0.278 0.502,-0.31 1.497,-1.305 1.097,-1.096 1.999,-1.7 2.29,-1.533 0.264,0.152 0.349,0.131 0.189,-0.045 -0.286,-0.316 3.233,-2.929 3.945,-2.929 0.201,0 0.469,-0.272 0.596,-0.604 0.128,-0.332 0.827,-0.852 1.554,-1.156 0.726,-0.303 2.135,-1.173 3.13,-1.933 0.995,-0.759 1.811,-1.25 1.815,-1.09 0.003,0.16 0.135,0.115 0.293,-0.1 0.356,-0.485 1.563,-1.184 4.584,-2.655 1.289,-0.627 2.431,-1.267 2.539,-1.42 0.215,-0.308 1.453,-0.864 2.304,-1.036 0.301,-0.061 0.653,-0.254 0.782,-0.429 0.128,-0.176 0.498,-0.374 0.82,-0.44 0.909,-0.187 4.074,-1.738 4.336,-2.125 0.129,-0.19 0.48,-0.386 0.781,-0.435 0.95,-0.155 4.444,-1.563 4.666,-1.88 0.116,-0.166 0.644,-0.351 1.171,-0.41 0.528,-0.059 1.061,-0.244 1.185,-0.411 0.123,-0.167 0.782,-0.343 1.464,-0.391 0.681,-0.048 1.239,-0.208 1.24,-0.356 0,-0.147005 0.308,-0.252005 0.684,-0.233005 0.376,0.019 2.442,-0.508 4.59,-1.172 2.149,-0.664 6.543,-1.764 9.766,-2.445 3.222,-0.681 6.211,-1.391 6.64,-1.578 1.777,-0.775 24.675,-0.86 25.66,-0.095 m -84.86,42.999005 -1.347,1.465 1.465,-1.346 c 0.806,-0.74 1.465,-1.4 1.465,-1.465 0,-0.298 -0.33,-0.017 -1.583,1.346 m 131.152,28.413 c 0.357,0.75 0.719,1.293 0.803,1.208 0.179,-0.178 -1.007,-2.57 -1.274,-2.57 -0.098,0 0.113,0.613 0.471,1.362 m -79.408,12.31 c 0,3.76 0.058,5.298 0.13,3.418 0.072,-1.88 0.072,-4.956 0,-6.836 -0.072,-1.88 -0.13,-0.342 -0.13,3.418 m -22.681,1.953 c 0,1.826 0.068,2.573 0.15,1.66 0.082,-0.913 0.082,-2.407 0,-3.32 -0.082,-0.913 -0.15,-0.166 -0.15,1.66 m 33.985,6.25 c 0,1.826 0.067,2.573 0.149,1.66 0.083,-0.913 0.083,-2.407 0,-3.32 -0.082,-0.913 -0.149,-0.166 -0.149,1.66 m -33.993,3.711 c 0.002,1.504 0.072,2.071 0.157,1.261 0.085,-0.811 0.083,-2.041 -0.003,-2.735 -0.086,-0.693 -0.156,-0.03 -0.154,1.474 m 65.213,4.492 c 0,0.967 0.076,1.362 0.169,0.879 0.093,-0.483 0.093,-1.274 0,-1.758 -0.093,-0.483 -0.169,-0.088 -0.169,0.879 m -55.04,3.125 c 0,2.256 0.064,3.179 0.143,2.051 0.079,-1.128 0.079,-2.974 0,-4.102 -0.079,-1.128 -0.143,-0.205 -0.143,2.051 m 33.986,3.32 c 10e-4,2.364 0.065,3.28 0.143,2.037 0.077,-1.243 0.077,-3.177 -0.002,-4.297 -0.079,-1.12 -0.142,-0.103 -0.141,2.26 m 11.303,-0.781 c 0.002,1.289 0.075,1.77 0.162,1.067 0.087,-0.702 0.085,-1.756 -0.004,-2.343 -0.089,-0.587 -0.161,-0.013 -0.158,1.276 m 10.156,1.953 c 0.002,1.289 0.075,1.77 0.162,1.068 0.087,-0.703 0.085,-1.757 -0.004,-2.344 -0.089,-0.587 -0.16,-0.013 -0.158,1.276 m -65.612,1.172 c 0.001,1.719 0.07,2.373 0.152,1.455 0.083,-0.919 0.082,-2.325 -0.002,-3.125 -0.084,-0.8 -0.152,-0.049 -0.15,1.67 m 111.333,6.25 c -0.002,1.934 0.065,2.774 0.146,1.867 0.082,-0.906 0.083,-2.488 0.003,-3.515 -0.081,-1.027 -0.148,-0.285 -0.149,1.648 m -55.86,6.25 c -0.001,1.934 0.065,2.774 0.147,1.867 0.082,-0.906 0.083,-2.488 0.002,-3.515 -0.081,-1.027 -0.148,-0.285 -0.149,1.648 m 23.406,-1.367 c 0,0.967 0.076,1.362 0.169,0.879 0.093,-0.483 0.093,-1.275 0,-1.758 -0.093,-0.483 -0.169,-0.088 -0.169,0.879 m -13.276,4.492 c 0.003,1.074 0.078,1.467 0.168,0.874 0.09,-0.594 0.088,-1.473 -0.005,-1.953 -0.093,-0.481 -0.166,0.005 -0.163,1.079 m 35.143,0 c 0.004,0.86 0.084,1.165 0.177,0.679 0.094,-0.486 0.09,-1.189 -0.007,-1.562 -0.098,-0.374 -0.175,0.024 -0.17,0.883 m -78.093,2.149 c 0,1.611 0.069,2.27 0.154,1.464 0.084,-0.805 0.084,-2.124 0,-2.929 -0.085,-0.806 -0.154,-0.147 -0.154,1.465 m 42.554,1.953 c 0,0.967 0.076,1.362 0.169,0.879 0.093,-0.484 0.093,-1.275 0,-1.758 -0.093,-0.484 -0.169,-0.088 -0.169,0.879 m -31.258,2.148 c 0.004,0.86 0.084,1.165 0.178,0.679 0.093,-0.486 0.089,-1.189 -0.008,-1.562 -0.098,-0.374 -0.175,0.024 -0.17,0.883 m 20.716,1.563 c 0.003,1.074 0.079,1.467 0.169,0.873 0.089,-0.594 0.087,-1.472 -0.006,-1.953 -0.092,-0.48 -0.166,0.005 -0.163,1.08 m -32.015,2.343 c 0.002,1.504 0.073,2.072 0.157,1.261 0.085,-0.81 0.083,-2.041 -0.003,-2.734 -0.086,-0.694 -0.155,-0.03 -0.154,1.473 m -22.276,0.196 c 0,1.181 0.073,1.665 0.162,1.074 0.09,-0.591 0.09,-1.558 0,-2.148 -0.089,-0.591 -0.162,-0.108 -0.162,1.074 m 34.003,9.375 c 0,1.826 0.068,2.573 0.15,1.66 0.082,-0.913 0.082,-2.407 0,-3.32 -0.082,-0.913 -0.15,-0.166 -0.15,1.66 m 78.951,38.769 -1.939,2.051 2.051,-1.938 c 1.906,-1.802 2.23,-2.163 1.939,-2.163 -0.062,0 -0.985,0.922 -2.051,2.05 m -70.781,27.136 c 0.594,0.09 1.473,0.087 1.953,-0.005 0.481,-0.093 -0.005,-0.166 -1.079,-0.164 -1.075,0.003 -1.468,0.079 -0.874,0.169"
       stroke="none"
       fill="#4b83d9"
       fill-rule="evenodd"
       style="filter:url(#filter3)"
       transform="matrix(1.0741469,0,0,1.0663399,14.898729,-32.869702)"
       sodipodi:nodetypes="ccccccccccccscsccccscccsscsccssssssssssscccsscscccccccccccssssscscsscsccsccccscccccccccsccccssscccssccscccccsccccccccccscscccccccsssssscsscccsccsccccsssssssccccssscccccssscsssccccccccccsccccccccsccccccsscsscsccccccccccsccscsscscccccssscccccccsssccssscscccsccssssccccsssccsccsccccccccssccccccssccscccscsccsscscscssssscscccscssscscscccccccccccccsssccccscccccccccccccccccscccccccscccsccssccssccccccccccscccsscccscccscccscccscccccccsccssccccccccccccccccccccccccccccccccccssccccsccccc" />
    <path
       id="path1"
       d="m 203.711,90.236 c -31.511,2.828 -63.835,23.762 -78.709,50.975 -0.705,1.289 -1.68,3.047 -2.168,3.906 -8.361,14.73 -12.037,41.124 -8.556,61.44 2.836,16.555 12.451,35.949 23.882,48.169 1.685,1.802 1.718,1.886 1.167,2.959 -0.312,0.607 -1.715,4.62 -3.117,8.917 -1.402,4.296 -4.329,12.822 -6.503,18.945 -5.693,16.027 -10.727,31.219 -10.441,31.505 0.53,0.531 4.67,-0.682 6.429,-1.883 2.97,-2.027 14.729,-10.777 34.389,-25.59 6.323,-4.764 12.248,-9.061 13.165,-9.547 l 1.668,-0.885 4.436,1.436 c 29.378,9.509 54.178,7.79 82.911,-5.745 12.287,-5.788 26.24,-18.607 35.967,-33.041 24.236,-35.967 21.516,-79.617 -7.216,-115.82 -19.419,-24.468 -54.21,-38.71 -87.304,-35.741 m 10.74,11.229 c -0.001,0.806 0.019,40.54 0.046,88.3 0.027,47.759 -0.057,86.941 -0.186,87.07 -0.331,0.331 -11.972,-0.893 -17.827,-1.873 -8.717,-1.46 -20.02,-5.068 -22.152,-7.07 -1.001,-0.941 -1.182,-0.861 -4.877,2.142 -5.699,4.632 -8.15,6.531 -10.471,8.115 -2.9,1.981 -7.934,5.77 -11.876,8.94 -5.045,4.057 -8.971,7.038 -9.1,6.909 -0.071,-0.071 0.474,-1.782 1.211,-3.802 0.736,-2.02 2.651,-7.276 4.255,-11.68 1.604,-4.405 4.014,-11.348 5.355,-15.43 1.341,-4.082 2.604,-7.74 2.807,-8.129 0.307,-0.586 -0.229,-1.269 -3.151,-4.02 -13.148,-12.377 -22.467,-31.431 -24.665,-50.431 -5.003,-43.252 19.514,-81.407 61.141,-95.153 9.297,-3.07 13.419,-3.858 26.562,-5.077 0.86,-0.079 1.871,-0.174 2.247,-0.21 0.541,-0.052 0.683,0.238 0.681,1.399 M 249,143.705 c 2.582,4.993 7.689,21.092 9.291,29.285 1.209,6.188 1.317,25.778 0.174,31.502 -2.655,13.291 -6.576,24.412 -9.645,27.352 l -1.075,1.029 -3.755,-1.827 c -2.066,-1.004 -3.756,-1.904 -3.756,-1.999 0,-0.094 0.378,-0.912 0.839,-1.816 0.462,-0.905 1.329,-3.051 1.927,-4.77 0.598,-1.719 1.542,-4.213 2.097,-5.544 4.383,-10.502 5.118,-36.71 1.432,-51.109 -1.171,-4.574 -4.247,-13.691 -5.551,-16.45 -1.286,-2.721 -1.32,-2.87 -0.646,-2.883 0.269,-0.005 2.158,-0.875 4.199,-1.935 2.041,-1.059 3.751,-1.934 3.799,-1.944 0.048,-0.01 0.35,0.489 0.67,1.109 m -20.98,0.729 c 1.049,1.545 1.491,2.689 2.788,7.207 6.908,24.069 7.38,52.552 1.188,71.646 -2.498,7.706 -3.151,8.285 -7.441,6.602 -3.446,-1.352 -3.311,-0.683 -1.746,-8.687 4.282,-21.901 3.364,-52.099 -2.14,-70.398 l -1.123,-3.734 0.871,-0.665 c 3.579,-2.732 6.561,-3.506 7.603,-1.971 m -31.926,-0.006 c -0.323,0.124 -1.212,0.619 -1.977,1.099 l -1.391,0.874 0.122,41.533 c 0.096,32.55 0.228,41.63 0.61,41.982 1.509,1.394 4.65,1.648 8.307,0.673 3.103,-0.826 2.895,0.399 2.445,-14.426 -0.208,-6.849 -0.298,-25.111 -0.201,-40.584 0.097,-15.472 0.032,-28.523 -0.145,-29.001 -0.705,-1.907 -5.185,-3.146 -7.77,-2.15 m 76.966,4.626 c 2.466,5.753 7.652,24.651 8.246,30.048 1.862,16.911 -3.565,44.227 -9.504,47.838 l -1.211,0.737 -2.626,-1.339 c -1.445,-0.736 -2.79,-1.338 -2.991,-1.338 -1.246,0 -1.132,-0.995 0.555,-4.813 7.68,-17.388 7.85,-40.527 0.454,-61.984 -1.074,-3.115 -1.989,-5.944 -2.034,-6.287 -0.051,-0.391 1.215,-1.505 3.412,-3 4.003,-2.725 4.477,-2.713 5.699,0.138 m -101.526,8.19 -1.291,1.087 0.134,28.159 c 0.16,33.503 -0.364,31.129 6.598,29.885 4.32,-0.772 4.475,-0.991 3.68,-5.229 -0.821,-4.384 -0.646,-39.795 0.236,-47.595 0.694,-6.145 0.164,-6.865 -5.31,-7.216 -2.57,-0.165 -2.843,-0.104 -4.047,0.909"
       stroke="none"
       fill="#0b1b2a"
       fill-rule="evenodd" />
    <path
       id="path2"
       d="m 0.091,1.172 c 0,0.752 0.08,1.059 0.178,0.683 0.099,-0.376 0.099,-0.991 0,-1.367 C 0.171,0.112 0.091,0.42 0.091,1.172 m 0.015,8.203 c 0,0.967 0.077,1.362 0.17,0.879 0.093,-0.483 0.093,-1.275 0,-1.758 C 0.183,8.013 0.106,8.408 0.106,9.375 m 201.406,67.593 c -3.761,0.439 -14.615,2.926 -19.431,4.452 -2.283,0.723 -5.382,1.695 -6.886,2.16 -4.93,1.522 -17.584,7.629 -23.437,11.31 -32.833,20.649 -52.707,55.3 -52.669,91.829 0.029,27.639 7.768,50.755 24.028,71.769 2.058,2.659 2.151,2.913 1.322,3.601 -0.308,0.256 -0.678,1.024 -0.821,1.708 -0.271,1.295 -4.714,12.97 -7.04,18.497 -0.739,1.756 -1.344,3.296 -1.344,3.421 0,0.125 -0.602,1.765 -1.337,3.643 -0.736,1.879 -2.239,5.788 -3.34,8.689 -1.102,2.9 -2.785,7.231 -3.741,9.624 -2.712,6.79 -1.938,10.344 3.455,15.867 8.945,9.159 13.047,8.937 27.034,-1.465 4.082,-3.036 8.564,-6.315 9.961,-7.288 4.98,-3.468 12.334,-8.677 14.321,-10.145 1.111,-0.82 3.876,-2.728 6.144,-4.24 2.269,-1.511 5.5,-3.867 7.181,-5.235 l 3.057,-2.488 1.543,0.794 c 1.971,1.014 5.364,1.904 13.652,3.579 42.125,8.517 88.362,-9.182 113.729,-43.534 30.86,-41.789 29.225,-90.232 -4.561,-135.139 -10.757,-14.299 -34.304,-30.667 -51.16,-35.564 -1.611,-0.468 -4.248,-1.278 -5.859,-1.8 -10.758,-3.484 -31.893,-5.436 -43.801,-4.045 m 20.168,13.268 c 34.2,3.758 58.006,17.752 75.803,44.563 22.319,33.622 23.258,70.618 2.65,104.356 -1.147,1.877 -2.339,3.723 -2.65,4.101 -0.31,0.379 -1.349,1.747 -2.309,3.04 -9.978,13.446 -21.71,23.508 -34.108,29.256 -28.008,12.984 -52.556,14.635 -80.89,5.441 l -5.567,-1.806 -2.246,1.481 c -1.235,0.815 -7.08,5.116 -12.988,9.559 -5.908,4.443 -12.148,9.135 -13.867,10.427 -20.193,15.185 -21.572,16.108 -24.551,16.415 -1.214,0.125 -2.207,0.143 -2.207,0.038 0,-0.104 0.36,-1.227 0.801,-2.496 0.44,-1.268 2.169,-6.349 3.842,-11.291 4.097,-12.102 7.593,-22.186 9.412,-27.148 1.185,-3.231 5.384,-15.61 6.52,-19.219 0.138,-0.437 -0.455,-1.373 -1.729,-2.734 -27.612,-29.488 -32.903,-77.915 -12.41,-113.594 19.258,-33.53 59.355,-54.469 96.494,-50.389 m -12.305,10.411 c -14.987,1.436 -23.984,3.776 -35.69,9.284 -11.951,5.623 -25.63,16.555 -32.593,26.046 -1.323,1.805 -2.553,3.459 -2.732,3.676 -13.227,16.031 -18.582,49.024 -11.947,73.603 3.9,14.448 16.273,34.416 24.715,39.888 l 0.933,0.604 -2.625,7.989 c -1.444,4.394 -3.602,10.626 -4.796,13.849 -3.153,8.512 -6.356,17.529 -6.357,17.898 -0.002,0.431 1.077,-0.365 8.592,-6.34 3.545,-2.818 8.73,-6.747 11.523,-8.73 2.793,-1.984 6.133,-4.49 7.422,-5.571 5.831,-4.885 7.245,-5.838 7.937,-5.347 2.753,1.955 6.703,3.428 15.501,5.781 7.203,1.927 24.287,4.119 24.867,3.19 0.168,-0.27 0.306,-39.997 0.305,-88.283 l -0.001,-87.793 -1.843,0.062 c -1.014,0.035 -2.459,0.122 -3.211,0.194 m -7.809,43.736 c 2.685,1.074 2.525,-1.201 2.643,37.648 0.059,19.444 0.147,38.163 0.195,41.6 l 0.088,6.247 -1.562,0.532 c -2.82,0.96 -6.483,1.033 -8.437,0.168 l -1.735,-0.767 -0.125,-41.859 -0.125,-41.858 2.476,-1.172 c 2.805,-1.327 4.306,-1.45 6.582,-0.539 m 46.225,0.009 c 0.422,0.752 -2.446,3.195 -4.005,3.411 -2.108,0.293 -2.83,0.18 -2.604,-0.407 0.111,-0.288 -0.056,-0.521 -0.374,-0.521 -0.735,0 -0.762,-0.135 0.551,2.778 4.163,9.235 7.194,22.14 7.65,32.574 0.112,2.578 0.324,7.06 0.47,9.961 0.361,7.191 0.3,12.016 -0.165,13.024 -0.883,1.914 -1.267,3.071 -1.267,3.814 0,0.432 -0.16,0.687 -0.356,0.566 -0.196,-0.121 -0.474,0.527 -0.619,1.441 -0.144,0.914 -0.498,2.482 -0.785,3.484 -0.287,1.002 -0.418,1.924 -0.292,2.051 0.126,0.126 -0.005,0.229 -0.292,0.229 -0.286,0 -0.403,0.117 -0.259,0.261 0.143,0.144 0.023,0.539 -0.267,0.879 -0.729,0.854 -1.09,1.985 -0.633,1.985 0.208,0 0.378,0.194 0.378,0.432 0,0.238 -0.264,0.332 -0.586,0.208 -0.363,-0.14 -0.586,0.002 -0.586,0.372 0,0.356 0.184,0.483 0.457,0.314 0.32,-0.198 0.37,-0.058 0.168,0.465 -0.16,0.411 -0.395,1.625 -0.523,2.697 -0.239,1.997 -0.957,3.176 -1.668,2.736 -0.22,-0.136 -0.299,-0.41 -0.175,-0.61 0.123,-0.2 0.131,-0.364 0.016,-0.364 -0.269,0 -1.4,2.183 -1.4,2.703 0,0.219 1.274,1.013 2.832,1.765 1.558,0.752 3.149,1.592 3.536,1.867 3.146,2.238 13.905,-29.691 11.828,-35.103 -0.131,-0.342 -0.025,-1.657 0.236,-2.921 0.391,-1.893 0.366,-3.106 -0.14,-6.887 -0.339,-2.523 -0.638,-5.731 -0.666,-7.127 -0.027,-1.397 -0.22,-3.594 -0.428,-4.883 -0.208,-1.289 -0.552,-3.559 -0.764,-5.045 -0.211,-1.485 -0.527,-2.803 -0.701,-2.929 -0.174,-0.126 -0.52,-0.932 -0.768,-1.792 -1.707,-5.912 -2.495,-8.056 -3.619,-9.839 -0.702,-1.114 -1.5,-3.048 -1.774,-4.297 -0.89,-4.06 -1.747,-6.907 -2.206,-7.327 -0.319,-0.292 -0.377,-0.282 -0.2,0.035 m -22.948,2.581 c -0.362,0.483 -0.794,1.102 -0.961,1.374 -0.562,0.916 -2.73,1.293 -3.163,0.55 -0.435,-0.744 -0.508,-0.291 -0.161,1.001 0.128,0.481 0.417,0.761 0.641,0.623 0.223,-0.138 0.293,-0.068 0.154,0.156 -0.138,0.224 0.432,3.371 1.266,6.994 1.93,8.376 2.328,11.015 2.639,17.511 0.215,4.47 0.331,5.169 0.766,4.595 0.486,-0.639 0.514,-0.639 0.526,0.008 0.008,0.411 0.314,0.684 0.767,0.684 0.958,0 1.046,0.34 1.62,6.251 0.363,3.737 0.37,5.802 0.027,8.789 -0.644,5.62 -1.542,11.037 -1.96,11.822 -0.198,0.372 -0.474,2.083 -0.613,3.802 -0.362,4.461 -1.727,9.215 -2.972,10.351 -0.356,0.325 -1.544,4.995 -1.544,6.071 0,2.396 6.295,3.911 7.538,1.813 5.092,-8.593 7.889,-34.279 5.707,-52.415 -0.22,-1.826 -0.427,-3.628 -0.461,-4.004 -0.033,-0.376 -0.191,-0.683 -0.35,-0.683 -0.159,0 -0.413,-0.66 -0.564,-1.465 -0.15,-0.806 -0.501,-2.01 -0.78,-2.677 -0.278,-0.666 -0.784,-3.468 -1.123,-6.226 -0.34,-2.758 -0.765,-5.201 -0.944,-5.429 -0.179,-0.228 -0.889,-2.26 -1.577,-4.516 -1.6,-5.241 -1.913,-5.859 -2.965,-5.859 -0.471,0 -1.152,0.395 -1.513,0.879 m 44.565,3.374 c -1.509,1.978 -3.303,3.046 -4.405,2.623 -0.487,-0.187 -0.574,-0.083 -0.37,0.444 2.018,5.201 5.063,15.744 5.951,20.609 0.673,3.686 1.144,30.128 0.518,29.115 -0.197,-0.318 -0.359,-0.207 -0.503,0.345 -0.118,0.447 -0.051,0.814 0.148,0.814 0.392,0 0.191,3.41 -0.224,3.826 -0.139,0.139 -0.417,-0.006 -0.616,-0.322 -0.305,-0.482 -0.365,-0.464 -0.37,0.109 -0.003,0.376 0.149,0.684 0.339,0.684 0.19,0 0.297,0.571 0.238,1.269 -0.058,0.699 -0.139,1.27 -0.179,1.27 -0.039,0 -0.162,1.138 -0.273,2.529 -0.226,2.827 -0.906,4.458 -2.135,5.115 -0.506,0.271 -0.728,0.286 -0.576,0.039 0.137,-0.221 0.071,-0.513 -0.148,-0.648 -0.236,-0.146 -0.397,0.24 -0.397,0.95 0,0.657 -0.176,1.195 -0.39,1.195 -0.215,0 -0.391,0.351 -0.391,0.781 0,0.429 -0.148,0.781 -0.328,0.781 -0.271,0 -1.234,1.659 -1.234,2.126 0,0.469 6.443,3.334 7.059,3.138 6.597,-2.093 12.802,-37.373 9.067,-51.553 -0.453,-1.719 -1.033,-4.161 -1.289,-5.426 -0.272,-1.344 -0.588,-2.104 -0.759,-1.826 -0.186,0.301 -0.518,-0.145 -0.904,-1.214 -0.335,-0.93 -0.959,-2.657 -1.386,-3.839 -0.427,-1.181 -1.126,-2.939 -1.554,-3.906 -0.427,-0.967 -0.87,-2.725 -0.985,-3.906 -0.692,-7.143 -1.527,-8.239 -3.904,-5.122 m -89.872,6.682 c 2.036,0.877 2.105,1.249 1.449,7.845 -0.782,7.864 -0.895,42.468 -0.152,46.75 0.667,3.851 0.505,4.083 -3.326,4.756 -5.316,0.933 -6.556,0.45 -6.958,-2.708 -0.677,-5.321 -0.629,-54.107 0.054,-55.469 1.147,-2.285 5.136,-2.81 8.933,-1.174 M 0.149,388.867 c 0.001,2.578 0.064,3.582 0.141,2.231 0.076,-1.351 0.075,-3.461 -0.002,-4.688 -0.077,-1.226 -0.14,-0.121 -0.139,2.457"
       stroke="none"
       fill="#2cedec"
       fill-rule="evenodd"
       style="opacity:1" />
    <path
       style="opacity:1;fill:#ffffff;fill-opacity:1;stroke-width:0.517967"
       d="m 127.6789,350.4384 c -2.8364,-0.69052 -6.63548,-3.18551 -5.90094,-3.87537 0.11182,-0.10501 2.06798,-1.45365 4.34704,-2.99696 5.03856,-3.41199 32.08677,-22.68849 39.65022,-28.25761 l 5.46438,-4.02353 2.56411,0.96171 c 3.41186,1.27968 12.10766,3.20531 19.13905,4.23822 6.64907,0.97675 21.82214,1.11688 28.33471,0.26169 29.74347,-3.90574 56.8566,-18.19467 74.52845,-39.27736 13.80758,-16.47258 22.6458,-35.55889 25.58962,-55.26129 1.45721,-9.7528 0.86182,-25.39223 -1.34087,-35.22176 -3.65391,-16.3056 -11.48756,-33.04953 -22.65793,-48.42993 -10.90213,-15.01105 -31.77693,-30.3704 -50.32641,-37.02937 -5.92225,-2.12599 -5.37537,-2.279421 1.71901,-0.48227 15.03576,3.80885 31.06568,12.1782 43.90552,22.92341 19.4939,16.31375 33.60934,42.30244 38.02549,70.01071 4.42407,27.75798 -6.9335,71.87529 -24.78792,96.2861 -12.79413,17.49232 -34.73286,30.96628 -57.50609,35.31813 -13.90438,2.65706 -26.80051,2.41145 -44.34729,-0.8446 -24.93744,-4.62748 -32.43974,-2.72413 -51.27874,13.00955 -10.41096,8.69486 -14.85403,11.47876 -20.09673,12.59202 -3.01046,0.63925 -2.81892,0.6355 -5.02468,0.0985 z"
       id="path3"
       transform="translate(6.7335728,-18.12885)" />
  </g>
</svg>
